HIERARCHY
ROOT Hips
{
	OFFSET 0.000000 0.000000 0.000000 
	CHANNELS 6 Xposition Yposition Zposition Zrotation Xrotation Yrotation
	JOINT LeftUpLeg
	{
		OFFSET 2.390000 -0.997500 0.003131 
		CHANNELS 3 Zrotation Xrotation Yrotation
		JOINT LeftUpLegRoll
		{
			OFFSET -0.008228 -5.368025 -0.050000 
			CHANNELS 3 Zrotation Xrotation Yrotation
			JOINT LeftLeg
			{
				OFFSET 0.008228 -5.304475 -0.040000 
				CHANNELS 3 Zrotation Xrotation Yrotation
				JOINT LeftLegRoll
				{
					OFFSET 0.008266 -8.023550 -0.789272 
					CHANNELS 3 Zrotation Xrotation Yrotation
					JOINT LeftFoot
					{
						OFFSET -0.008285 -2.447005 -0.176461 
						CHANNELS 3 Zrotation Xrotation Yrotation
						End Site
						{
							OFFSET -0.006362 -1.603547 3.533050 
						}
					}
				}
			}
		}
	}
	JOINT RightUpLeg
	{
		OFFSET -2.390000 -0.997500 0.003131 
		CHANNELS 3 Zrotation Xrotation Yrotation
		JOINT RightUpLegRoll
		{
			OFFSET 0.007500 -5.367500 -0.050000 
			CHANNELS 3 Zrotation Xrotation Yrotation
			JOINT RightLeg
			{
				OFFSET -0.007500 -5.305000 -0.040000 
				CHANNELS 3 Zrotation Xrotation Yrotation
				JOINT RightLegRoll
				{
					OFFSET 0.005000 -8.024050 -0.790258 
					CHANNELS 3 Zrotation Xrotation Yrotation
					JOINT RightFoot
					{
						OFFSET 0.020000 -2.446472 -0.175476 
						CHANNELS 3 Zrotation Xrotation Yrotation
						End Site
						{
							OFFSET 0.010000 -1.603528 3.533050 
						}
					}
				}
			}
		}
	}
	JOINT Spine
	{
		OFFSET 0.000000 2.857200 0.095838 
		CHANNELS 3 Zrotation Xrotation Yrotation
		JOINT Spine1
		{
			OFFSET 0.000000 3.491675 -0.016748 
			CHANNELS 3 Zrotation Xrotation Yrotation
			JOINT Spine2
			{
				OFFSET 0.000000 2.811225 -0.017190 
				CHANNELS 3 Zrotation Xrotation Yrotation
				JOINT Spine3
				{
					OFFSET 0.000000 3.297825 -0.158152 
					CHANNELS 3 Zrotation Xrotation Yrotation
					JOINT LeftShoulder
					{
						OFFSET 2.247500 -0.945430 -0.255617 
						CHANNELS 3 Zrotation Xrotation Yrotation
						JOINT LeftArm
						{
							OFFSET 2.422500 0.192500 0.242500 
							CHANNELS 3 Zrotation Xrotation Yrotation
							JOINT LeftArmRoll
							{
								OFFSET 3.011150 -0.056125 -0.149282 
								CHANNELS 3 Zrotation Xrotation Yrotation
								JOINT LeftForeArm
								{
									OFFSET 3.544950 0.021691 -0.254337 
									CHANNELS 3 Zrotation Xrotation Yrotation
									JOINT LeftForeArmRoll
									{
										OFFSET 3.242425 0.024099 -0.017220 
										CHANNELS 3 Zrotation Xrotation Yrotation
										End Site
										{
											OFFSET 3.371325 0.031393 -0.007218 
										}
									}
								}
							}
						}
					}
					JOINT RightShoulder
					{
						OFFSET -2.247500 -0.945430 -0.255617 
						CHANNELS 3 Zrotation Xrotation Yrotation
						JOINT RightArm
						{
							OFFSET -2.422500 0.192500 0.242500 
							CHANNELS 3 Zrotation Xrotation Yrotation
							JOINT RightArmRoll
							{
								OFFSET -3.062100 -0.062702 -0.132500 
								CHANNELS 3 Zrotation Xrotation Yrotation
								JOINT RightForeArm
								{
									OFFSET -3.498150 0.035499 -0.338573 
									CHANNELS 3 Zrotation Xrotation Yrotation
									JOINT RightForeArmRoll
									{
										OFFSET -3.278950 0.026904 0.120309 
										CHANNELS 3 Zrotation Xrotation Yrotation
										End Site
										{
											OFFSET -3.349925 0.018716 0.058049 
										}
									}
								}
							}
						}
					}
					JOINT Neck
					{
						OFFSET 0.000000 1.108613 -0.101302 
						CHANNELS 3 Zrotation Xrotation Yrotation
						End Site
						{
							OFFSET 0.000000 1.617325 0.410885 
						}
					}
				}
			}
		}
	}
}
MOTION
Frames: 10
Frame Time: 0.041667
-1.459690 22.194000 -12.461825 -3.524820 18.226101 27.626400 0.672326 4.202260 1.633030 0.000000 -0.000000 0.000000 -1.303570 1.723860 0.697277 0.000000 -0.000000 0.000000 2.630210 -9.189540 -0.763041 -24.500099 -52.280899 -5.493650 0.000000 0.000000 0.000000 29.179100 43.113998 -16.802500 -0.000000 0.000000 0.000000 -14.429600 0.051251 -5.135610 5.562020 1.923510 2.108850 -0.000000 0.000000 -0.000000 0.000000 0.000000 -0.000000 0.000000 -0.000000 0.000000 -17.941200 -1.743510 -5.225510 -91.876198 48.884998 54.863800 0.000000 -0.000000 0.000000 11.292200 -48.093102 -94.974602 -0.000000 0.000000 -0.000000 14.789600 0.394826 3.586730 46.079300 29.181499 14.806000 -0.000000 0.000000 0.000000 -31.182501 -50.350899 74.448402 -0.000000 0.000000 0.000000 0.000000 0.000000 0.000000 
-1.448627 22.166550 -12.803650 -2.583270 19.087400 28.023500 -0.977613 3.089900 0.374511 0.000000 -0.000000 0.000000 -1.295230 1.720900 0.700539 0.000000 -0.000000 0.000000 3.434890 -9.872220 -0.428370 -28.006201 -53.070400 -8.230970 0.000000 0.000000 0.000000 29.283701 43.192600 -16.858400 -0.000000 0.000000 0.000000 -13.940700 0.376747 -4.950230 5.339290 2.023820 2.293730 -0.000000 0.000000 -0.000000 0.000000 0.000000 -0.000000 0.000000 -0.000000 0.000000 -18.206499 -1.737800 -5.096100 -91.477898 45.088100 56.183601 0.000000 -0.000000 0.000000 10.170000 -47.833199 -95.785797 -0.000000 0.000000 -0.000000 14.828500 0.370228 3.824430 47.829601 29.010900 14.297800 -0.000000 0.000000 0.000000 -31.457001 -50.322601 74.191803 -0.000000 0.000000 0.000000 0.000000 0.000000 0.000000 
-1.436475 22.217449 -12.992900 -1.785810 20.033400 27.673800 -2.258080 2.301290 -0.622800 0.000000 -0.000000 0.000000 -1.276360 1.719690 0.693386 0.000000 -0.000000 0.000000 3.150950 -9.561450 -0.525616 -30.611200 -53.281101 -10.232600 0.000000 0.000000 0.000000 28.748400 42.732899 -16.374399 -0.000000 0.000000 0.000000 -12.775700 0.308875 -4.434190 5.045760 2.059000 2.426320 -0.000000 0.000000 -0.000000 0.000000 0.000000 -0.000000 0.000000 -0.000000 0.000000 -18.494900 -1.748470 -5.086660 -90.353203 42.675201 56.308498 0.000000 -0.000000 0.000000 9.239190 -47.607700 -96.615601 -0.000000 0.000000 -0.000000 14.568100 0.349785 3.913260 48.925800 29.964701 14.052200 -0.000000 0.000000 0.000000 -32.570301 -50.424999 73.804001 -0.000000 0.000000 0.000000 0.000000 0.000000 0.000000 
-1.414090 22.231550 -13.106300 -1.405450 20.843599 26.779200 -3.264790 1.737860 0.299650 0.000000 -0.000000 0.000000 -0.924701 1.184430 0.693737 0.000000 -0.000000 0.000000 2.705110 -10.048500 -0.769653 -32.254601 -54.038799 -11.816700 0.000000 0.000000 0.000000 28.383301 42.452301 -16.120300 -0.000000 0.000000 0.000000 -11.294900 -0.013291 -3.990770 5.098370 2.014520 2.521910 -0.000000 0.000000 -0.000000 0.000000 0.000000 -0.000000 0.000000 -0.000000 0.000000 -18.601601 -1.751130 -5.077380 -89.371201 41.723999 55.563999 0.000000 -0.000000 0.000000 8.523800 -47.548000 -97.683403 -0.000000 0.000000 -0.000000 14.006200 0.310731 3.963660 49.582401 31.242701 13.759300 -0.000000 0.000000 0.000000 -33.991100 -50.558498 73.190300 -0.000000 0.000000 0.000000 0.000000 0.000000 0.000000 
-1.415680 22.186174 -13.162000 -1.502690 21.657400 25.853701 -3.972920 1.338210 1.213320 0.000000 -0.000000 0.000000 -0.589091 0.539481 0.718577 0.000000 -0.000000 0.000000 3.172380 -10.669800 -0.559865 -32.975101 -55.299900 -12.595000 0.000000 0.000000 0.000000 28.592899 42.655399 -16.327200 -0.000000 0.000000 0.000000 -10.191300 -0.473785 -3.590920 5.302270 1.940730 2.568660 -0.000000 0.000000 -0.000000 0.000000 0.000000 -0.000000 0.000000 -0.000000 0.000000 -18.515100 -1.750890 -5.075470 -88.783798 41.831402 54.397800 0.000000 -0.000000 0.000000 8.022760 -47.695000 -99.173302 -0.000000 0.000000 -0.000000 13.322300 0.291935 3.822460 48.882401 31.714300 14.105600 -0.000000 0.000000 0.000000 -34.906399 -50.817299 73.119003 -0.000000 0.000000 0.000000 0.000000 0.000000 0.000000 
-1.442475 22.082001 -13.111075 -1.443890 22.178600 24.602501 -4.355540 1.489870 2.215240 0.000000 -0.000000 0.000000 -0.343176 -0.007126 0.759556 0.000000 -0.000000 0.000000 3.449910 -11.468000 -0.470492 -32.814400 -56.755100 -12.008600 0.000000 0.000000 0.000000 29.512300 43.521301 -17.072100 -0.000000 0.000000 0.000000 -9.706350 -1.542950 -3.376900 5.468740 1.924740 2.632010 -0.000000 0.000000 -0.000000 0.000000 0.000000 -0.000000 0.000000 -0.000000 0.000000 -18.270300 -1.752350 -5.155610 -87.941101 43.232498 52.533298 0.000000 -0.000000 0.000000 6.910250 -47.700401 -101.295998 -0.000000 0.000000 -0.000000 12.941200 0.311523 3.480430 47.531200 31.482700 14.922700 -0.000000 0.000000 0.000000 -33.912102 -51.252201 74.638901 -0.000000 0.000000 0.000000 0.000000 0.000000 0.000000 
-1.458763 21.925600 -12.913400 -1.010070 22.663099 21.315901 -4.760380 2.414100 5.381960 0.000000 -0.000000 0.000000 0.037404 -0.750310 0.808894 0.000000 -0.000000 0.000000 2.672280 -13.308500 -1.056470 -30.439800 -59.062801 -8.273470 0.000000 0.000000 0.000000 31.441700 44.893501 -18.684799 -0.000000 0.000000 0.000000 -9.752810 -2.938650 -3.368190 5.712350 1.856410 2.825430 -0.000000 0.000000 -0.000000 0.000000 0.000000 -0.000000 0.000000 -0.000000 0.000000 -17.319599 -1.747590 -5.505830 -87.150902 44.479500 49.344398 0.000000 -0.000000 0.000000 6.467870 -47.805000 -103.172997 -0.000000 0.000000 -0.000000 12.336200 0.311099 3.198350 46.789799 32.327499 15.659500 -0.000000 0.000000 0.000000 -30.441900 -51.425598 77.467903 -0.000000 0.000000 0.000000 0.000000 0.000000 0.000000 
-1.481547 21.766850 -12.551000 -1.517910 22.594999 18.390800 -4.132080 3.593410 7.098220 0.000000 -0.000000 0.000000 0.127243 -1.035320 0.879774 0.000000 -0.000000 0.000000 3.833850 -13.217200 -0.385661 -24.274799 -60.896400 -1.747780 0.000000 0.000000 0.000000 32.880001 46.076599 -19.878201 -0.000000 0.000000 0.000000 -10.477100 -4.249040 -3.678050 5.964830 1.665500 2.800930 -0.000000 0.000000 -0.000000 0.000000 0.000000 -0.000000 0.000000 -0.000000 0.000000 -14.625700 -1.619760 -5.553080 -87.493599 43.581200 44.379200 0.000000 -0.000000 0.000000 8.303770 -49.032902 -104.228996 -0.000000 0.000000 -0.000000 11.464900 0.286184 2.955470 46.680801 36.332699 16.535400 -0.000000 0.000000 0.000000 -27.360800 -51.132801 78.894501 -0.000000 0.000000 0.000000 0.000000 0.000000 0.000000 
-1.646672 21.654150 -11.929500 -2.787310 21.780300 13.820300 -2.162340 5.318580 10.843900 0.000000 -0.000000 0.000000 -0.109074 -0.401709 0.949113 0.000000 -0.000000 0.000000 5.670110 -10.758700 0.815124 -11.284100 -61.635101 10.819000 0.000000 0.000000 0.000000 33.473900 46.454700 -20.379900 -0.000000 0.000000 0.000000 -12.217200 -4.652310 -4.360610 6.148070 1.410130 2.785880 -0.000000 0.000000 -0.000000 0.000000 0.000000 -0.000000 0.000000 -0.000000 0.000000 -11.933700 -1.410500 -5.057300 -89.939301 42.645599 39.857300 0.000000 -0.000000 0.000000 11.296000 -51.409100 -106.694000 -0.000000 0.000000 -0.000000 11.119400 0.322564 2.511870 45.858299 42.842300 17.440800 -0.000000 0.000000 0.000000 -28.000099 -50.926601 77.949799 -0.000000 0.000000 0.000000 0.000000 0.000000 0.000000 
-1.925897 21.799450 -10.964925 -4.839190 18.761000 10.238100 1.875130 8.421230 12.346300 0.000000 -0.000000 0.000000 -1.405640 3.353570 0.974440 0.000000 -0.000000 0.000000 9.299510 -4.830730 2.499350 1.763690 -56.488998 21.114100 0.000000 0.000000 0.000000 31.677601 45.068802 -18.679399 -0.000000 0.000000 0.000000 -14.075000 -4.764770 -5.117720 5.540190 1.052940 2.277710 -0.000000 0.000000 -0.000000 0.000000 0.000000 -0.000000 0.000000 -0.000000 0.000000 -9.275290 -1.179920 -4.439490 -91.403503 45.645500 35.086700 0.000000 -0.000000 0.000000 10.951900 -53.046700 -112.500000 -0.000000 0.000000 -0.000000 11.822400 0.428997 1.894750 45.520599 50.770302 16.950899 -0.000000 0.000000 0.000000 -31.228201 -50.806801 75.373497 -0.000000 0.000000 0.000000 0.000000 0.000000 0.000000 
